<svg width="28" height="28" viewBox="0 0 28 28" fill="none" xmlns="http://www.w3.org/2000/svg">
<path d="M3.97651 7.07014C4.36951 6.83448 4.82361 6.72074 5.28129 6.74335C5.73898 6.76596 6.17965 6.92389 6.54751 7.19714L5.77051 6.11714C5.62353 5.93729 5.51854 5.7269 5.4632 5.50132C5.40785 5.27574 5.40354 5.04065 5.45059 4.8132C5.49763 4.58574 5.59484 4.37165 5.73513 4.18653C5.87542 4.00141 6.05525 3.84993 6.26151 3.74314C7.15451 3.14314 9.68551 4.75014 9.68551 4.75014C9.52885 4.56255 9.41382 4.34382 9.34802 4.10844C9.28223 3.87306 9.26717 3.62639 9.30385 3.38476C9.34053 3.14312 9.42811 2.91203 9.5608 2.70678C9.69348 2.50152 9.86824 2.32679 10.0735 2.19414C10.5088 1.90412 11.0383 1.79116 11.554 1.87832C12.0697 1.96548 12.5327 2.24619 12.8485 2.66314L21.2165 13.9631L20.1495 23.8441L11.2495 20.7441L3.48651 9.74414C3.33492 9.53929 3.22699 9.3055 3.1694 9.05725C3.11182 8.809 3.10581 8.55157 3.15174 8.3009C3.19768 8.05023 3.29458 7.81166 3.43645 7.59996C3.57832 7.38825 3.76213 7.20793 3.97651 7.07014Z" fill="#EF9645"/>
<path d="M2.22451 13.4183C2.10583 13.2522 2.02188 13.0638 1.97769 12.8645C1.93349 12.6651 1.92996 12.4589 1.9673 12.2582C2.00465 12.0575 2.0821 11.8664 2.19502 11.6963C2.30795 11.5262 2.45402 11.3806 2.62451 11.2683C2.7898 11.1492 2.97753 11.065 3.17633 11.0206C3.37513 10.9761 3.58087 10.9725 3.78111 11.0099C3.98135 11.0473 4.17192 11.1249 4.34129 11.2381C4.51067 11.3513 4.65532 11.4976 4.76651 11.6683L8.81651 17.5893C8.95834 17.351 9.11255 17.1204 9.27851 16.8983L3.65951 8.68129C3.54064 8.51453 3.45616 8.32578 3.41098 8.12603C3.36581 7.92629 3.36085 7.71955 3.39639 7.51787C3.43193 7.31619 3.50726 7.1236 3.61799 6.95133C3.72873 6.77907 3.87264 6.63056 4.04135 6.51448C4.21006 6.3984 4.4002 6.31707 4.60066 6.27522C4.80113 6.23337 5.00792 6.23185 5.20898 6.27073C5.41004 6.30962 5.60135 6.38814 5.77176 6.50172C5.94216 6.6153 6.08825 6.76167 6.20151 6.93229L11.4825 14.6613C11.6825 14.5003 11.8825 14.3393 12.0825 14.1803L5.96451 5.21829C5.84564 5.05153 5.76116 4.86278 5.71598 4.66303C5.67081 4.46329 5.66585 4.25655 5.70139 4.05487C5.73693 3.85319 5.81226 3.6606 5.92299 3.48833C6.03373 3.31607 6.17764 3.16756 6.34635 3.05148C6.51506 2.9354 6.7052 2.85407 6.90566 2.81222C7.10613 2.77037 7.31292 2.76885 7.51398 2.80773C7.71504 2.84662 7.90635 2.92514 8.07676 3.03872C8.24716 3.1523 8.39325 3.29867 8.50651 3.46929L14.6295 12.4303C14.8545 12.2923 15.0775 12.1723 15.3005 12.0453L9.57751 3.67029C9.45883 3.50416 9.37488 3.31579 9.33069 3.11647C9.28649 2.91714 9.28296 2.71095 9.32031 2.51023C9.35765 2.3095 9.4351 2.11838 9.54802 1.94828C9.66095 1.77818 9.80702 1.63262 9.97751 1.52029C10.1428 1.40124 10.3305 1.31696 10.5293 1.27255C10.7281 1.22814 10.9339 1.22453 11.1341 1.26192C11.3343 1.29931 11.5249 1.37694 11.6943 1.4901C11.8637 1.60326 12.0083 1.74961 12.1195 1.92029L18.1705 10.7773L19.0905 12.1243C17.4074 13.2904 16.253 15.0741 15.8784 17.0872C15.5038 19.1003 15.9395 21.1798 17.0905 22.8733C17.1461 22.9586 17.2184 23.0318 17.3031 23.0884C17.3878 23.145 17.4831 23.1838 17.5832 23.2025C17.6833 23.2212 17.7862 23.2194 17.8856 23.1972C17.985 23.1749 18.0789 23.1328 18.1615 23.0733C17.5288 22.2571 17.0759 21.3162 16.8327 20.3125C16.5895 19.3088 16.5614 18.265 16.7503 17.2497C16.9392 16.2344 17.3408 15.2705 17.9287 14.4214C18.5166 13.5724 19.2776 12.8573 20.1615 12.3233L19.0365 6.67829C18.9246 6.2851 18.9734 5.86356 19.1723 5.5064C19.3712 5.14924 19.7038 4.88571 20.097 4.77379C20.4902 4.66187 20.9117 4.71072 21.2689 4.9096C21.6261 5.10848 21.8896 5.4411 22.0015 5.83429L23.3015 9.70329C23.7908 11.2465 24.3882 12.7532 25.0895 14.2123C26.1552 16.3084 26.383 18.7317 25.7266 20.9897C25.0701 23.2477 23.5786 25.1712 21.5552 26.3692C19.5317 27.5673 17.1281 27.9501 14.8326 27.4399C12.5371 26.9296 10.5219 25.5647 9.19651 23.6223L2.22451 13.4183Z" fill="#FFDC5D"/>
<path d="M9.70951 24.678C8.03548 24.5585 6.4607 23.8393 5.27424 22.6522C4.08778 21.4652 3.36924 19.8901 3.25051 18.216C3.25399 18.1126 3.23671 18.0096 3.19968 17.913C3.16266 17.8164 3.10665 17.7282 3.03496 17.6536C2.96327 17.5791 2.87735 17.5196 2.78229 17.4788C2.68724 17.438 2.58496 17.4166 2.48151 17.416C2.26542 17.4146 2.05724 17.4972 1.90103 17.6466C1.74481 17.7959 1.65282 18.0001 1.64451 18.216C1.58283 19.2913 1.74919 20.3674 2.13268 21.3739C2.51616 22.3803 3.10811 23.2943 3.86968 24.0559C4.63125 24.8174 5.54523 25.4094 6.55167 25.7929C7.55811 26.1764 8.63426 26.3427 9.70951 26.281C9.92545 26.2727 10.1297 26.1807 10.279 26.0245C10.4283 25.8683 10.511 25.6601 10.5095 25.444C10.5085 25.3408 10.4869 25.2389 10.4459 25.1442C10.4049 25.0495 10.3454 24.9639 10.2708 24.8925C10.1963 24.8212 10.1082 24.7654 10.0118 24.7286C9.91545 24.6918 9.81265 24.6746 9.70951 24.678Z" fill="#5DADEC"/>
<path d="M5.48352 26.3097C4.96786 26.3408 4.45148 26.2621 3.96847 26.0788C3.48547 25.8956 3.04684 25.612 2.68155 25.2467C2.31627 24.8814 2.03263 24.4428 1.84939 23.9598C1.66614 23.4768 1.58745 22.9604 1.61852 22.4447C1.61852 22.2397 1.53708 22.0431 1.39211 21.8981C1.24715 21.7532 1.05053 21.6717 0.845518 21.6717C0.640505 21.6717 0.44389 21.7532 0.298924 21.8981C0.153959 22.0431 0.0725178 22.2397 0.0725178 22.4447C0.0551078 23.16 0.183168 23.8715 0.448934 24.5358C0.714699 25.2002 1.11263 25.8037 1.6186 26.3096C2.12457 26.8156 2.72803 27.2135 3.3924 27.4793C4.05676 27.7451 4.76818 27.8731 5.48352 27.8557C5.68853 27.8557 5.88515 27.7743 6.03011 27.6293C6.17508 27.4843 6.25652 27.2877 6.25652 27.0827C6.25652 26.8777 6.17508 26.6811 6.03011 26.5361C5.88515 26.3912 5.68853 26.3097 5.48352 26.3097ZM18.6255 1.57171C18.524 1.57171 18.4235 1.59171 18.3297 1.63055C18.2359 1.6694 18.1507 1.72634 18.0789 1.79812C18.0071 1.8699 17.9502 1.95511 17.9114 2.0489C17.8725 2.14268 17.8525 2.2432 17.8525 2.34471C17.8525 2.44622 17.8725 2.54674 17.9114 2.64053C17.9502 2.73431 18.0071 2.81953 18.0789 2.89131C18.1507 2.96309 18.2359 3.02002 18.3297 3.05887C18.4235 3.09772 18.524 3.11771 18.6255 3.11771C20.248 3.17303 21.789 3.84231 22.937 4.99027C24.0849 6.13822 24.7542 7.6792 24.8095 9.30171C24.8095 9.50672 24.891 9.70334 25.0359 9.8483C25.1809 9.99327 25.3775 10.0747 25.5825 10.0747C25.7875 10.0747 25.9841 9.99327 26.1291 9.8483C26.2741 9.70334 26.3555 9.50672 26.3555 9.30171C26.3861 8.2783 26.2071 7.25944 25.8294 6.30776C25.4518 5.35608 24.8835 4.49168 24.1595 3.76769C23.4355 3.04371 22.5712 2.47543 21.6195 2.09779C20.6678 1.72015 19.6489 1.54112 18.6255 1.57171Z" fill="#5DADEC"/>
<path d="M22.3375 0.000573853C22.2342 -0.00276463 22.1312 0.014615 22.0347 0.0516888C21.9381 0.0887626 21.85 0.144781 21.7754 0.216444C21.7009 0.288107 21.6414 0.373965 21.6006 0.46896C21.5597 0.563955 21.5383 0.666167 21.5375 0.769574C21.5363 0.985589 21.6191 1.19363 21.7683 1.34979C21.9176 1.50595 22.1217 1.59802 22.3375 1.60657C22.8654 1.58861 23.3914 1.6793 23.8828 1.87302C24.3742 2.06674 24.8206 2.35935 25.1942 2.73271C25.5679 3.10608 25.8608 3.55222 26.0549 4.04349C26.249 4.53475 26.3401 5.06065 26.3225 5.58857C26.3308 5.80451 26.4228 6.00874 26.579 6.15805C26.7352 6.30736 26.9434 6.39003 27.1595 6.38857C27.2629 6.38783 27.3651 6.36639 27.4601 6.32554C27.5551 6.28468 27.641 6.22522 27.7126 6.15067C27.7843 6.07612 27.8403 5.98798 27.8774 5.89144C27.9145 5.79491 27.9319 5.69193 27.9285 5.58857C27.9388 4.85166 27.8011 4.12018 27.5237 3.43739C27.2463 2.7546 26.8348 2.13437 26.3136 1.61338C25.7923 1.0924 25.1719 0.681233 24.4889 0.404212C23.806 0.127192 23.0744 -0.01006 22.3375 0.000573853Z" fill="#5DADEC"/>
</svg>
